<svg xmlns="http://www.w3.org/2000/svg" viewBox="0 0 1417.54 1000.71"><defs><style>.cls-1,.cls-2,.cls-3,.cls-4,.cls-8{fill:none;}.cls-1,.cls-2,.cls-3,.cls-4,.cls-5,.cls-8{stroke:#fff;}.cls-1,.cls-2,.cls-3,.cls-4,.cls-5,.cls-7,.cls-8{stroke-miterlimit:10;}.cls-1,.cls-2,.cls-3,.cls-4,.cls-5,.cls-7{stroke-width:2px;}.cls-2{stroke-dasharray:9.84 4.92;}.cls-3{stroke-dasharray:10.43 5.21;}.cls-4{stroke-dasharray:9.26 4.63;}.cls-5,.cls-6,.cls-7{fill:#fff;}.cls-6{font-size:18px;font-family:SDGothicNeoa-iHv-KSCpc-EUC-H, Sandoll GothicNeo1;}.cls-7{stroke:#231f20;}.cls-8{stroke-width:20px;}</style></defs><title>Asset 1</title><g id="Layer_2" data-name="Layer 2"><g id="Layer_1-2" data-name="Layer 1"><rect class="cls-1" x="729.23" y="528.73" width="280.65" height="140.33"/><rect class="cls-1" x="869.55" y="388.41" width="140.33" height="140.33"/><polyline class="cls-1" points="1340.53 664.06 1340.53 669.06 1335.53 669.06"/><line class="cls-2" x1="1330.61" y1="669.06" x2="1067.34" y2="669.06"/><polyline class="cls-1" points="1064.88 669.06 1059.88 669.06 1059.88 664.06"/><line class="cls-3" x1="1059.88" y1="658.85" x2="1059.88" y2="536.34"/><polyline class="cls-1" points="1059.88 533.73 1059.88 528.73 1064.88 528.73"/><line class="cls-2" x1="1069.8" y1="528.73" x2="1333.07" y2="528.73"/><polyline class="cls-1" points="1335.53 528.73 1340.53 528.73 1340.53 533.73"/><line class="cls-3" x1="1340.53" y1="538.95" x2="1340.53" y2="661.45"/><polyline class="cls-1" points="1340.53 523.73 1340.53 528.73 1335.53 528.73"/><line class="cls-3" x1="1330.32" y1="528.73" x2="1207.81" y2="528.73"/><polyline class="cls-1" points="1205.21 528.73 1200.21 528.73 1200.21 523.73"/><line class="cls-3" x1="1200.21" y1="518.52" x2="1200.21" y2="396.01"/><polyline class="cls-1" points="1200.21 393.41 1200.21 388.41 1205.21 388.41"/><line class="cls-3" x1="1210.42" y1="388.41" x2="1332.93" y2="388.41"/><polyline class="cls-1" points="1335.53 388.41 1340.53 388.41 1340.53 393.41"/><line class="cls-3" x1="1340.53" y1="398.62" x2="1340.53" y2="521.13"/><polyline class="cls-1" points="1200.21 523.73 1200.21 528.73 1195.21 528.73"/><line class="cls-3" x1="1189.99" y1="528.73" x2="1067.49" y2="528.73"/><polyline class="cls-1" points="1064.88 528.73 1059.88 528.73 1059.88 523.73"/><line class="cls-3" x1="1059.88" y1="518.52" x2="1059.88" y2="396.01"/><polyline class="cls-1" points="1059.88 393.41 1059.88 388.41 1064.88 388.41"/><line class="cls-3" x1="1070.09" y1="388.41" x2="1192.6" y2="388.41"/><polyline class="cls-1" points="1195.21 388.41 1200.21 388.41 1200.21 393.41"/><line class="cls-3" x1="1200.21" y1="398.62" x2="1200.21" y2="521.13"/><rect class="cls-1" x="729.23" y="458.57" width="140.33" height="70.16"/><rect class="cls-1" x="729.23" y="388.41" width="140.33" height="70.16"/><polyline class="cls-1" points="1009.88 994.71 1009.88 999.71 1004.88 999.71"/><line class="cls-3" x1="999.67" y1="999.71" x2="877.16" y2="999.71"/><polyline class="cls-1" points="874.55 999.71 869.55 999.71 869.55 994.71"/><line class="cls-2" x1="869.55" y1="989.79" x2="869.55" y2="726.52"/><polyline class="cls-1" points="869.55 724.06 869.55 719.06 874.55 719.06"/><line class="cls-3" x1="879.77" y1="719.06" x2="1002.27" y2="719.06"/><polyline class="cls-1" points="1004.88 719.06 1009.88 719.06 1009.88 724.06"/><line class="cls-2" x1="1009.88" y1="728.98" x2="1009.88" y2="992.25"/><polyline class="cls-1" points="869.55 994.71 869.55 999.71 864.55 999.71"/><line class="cls-3" x1="859.34" y1="999.71" x2="736.84" y2="999.71"/><polyline class="cls-1" points="734.23 999.71 729.23 999.71 729.23 994.71"/><line class="cls-3" x1="729.23" y1="989.5" x2="729.23" y2="866.99"/><polyline class="cls-1" points="729.23 864.38 729.23 859.38 734.23 859.38"/><line class="cls-3" x1="739.44" y1="859.39" x2="861.95" y2="859.39"/><polyline class="cls-1" points="864.55 859.38 869.55 859.38 869.55 864.38"/><line class="cls-3" x1="869.55" y1="869.6" x2="869.55" y2="992.1"/><polyline class="cls-1" points="869.55 854.38 869.55 859.38 864.55 859.38"/><line class="cls-3" x1="859.34" y1="859.39" x2="736.84" y2="859.39"/><polyline class="cls-1" points="734.23 859.38 729.23 859.38 729.23 854.38"/><line class="cls-3" x1="729.23" y1="849.17" x2="729.23" y2="726.67"/><polyline class="cls-1" points="729.23 724.06 729.23 719.06 734.23 719.06"/><line class="cls-3" x1="739.44" y1="719.06" x2="861.95" y2="719.06"/><polyline class="cls-1" points="864.55 719.06 869.55 719.06 869.55 724.06"/><line class="cls-3" x1="869.55" y1="729.27" x2="869.55" y2="851.78"/><polyline class="cls-1" points="1004.88 57.76 1009.88 57.76 1009.88 62.76"/><line class="cls-2" x1="1009.88" y1="67.68" x2="1009.88" y2="330.95"/><polyline class="cls-1" points="1009.88 333.41 1009.88 338.41 1004.88 338.41"/><line class="cls-3" x1="999.67" y1="338.41" x2="877.16" y2="338.41"/><polyline class="cls-1" points="874.55 338.41 869.55 338.41 869.55 333.41"/><line class="cls-2" x1="869.55" y1="328.49" x2="869.55" y2="65.22"/><polyline class="cls-1" points="869.55 62.76 869.55 57.76 874.55 57.76"/><line class="cls-3" x1="879.77" y1="57.76" x2="1002.27" y2="57.76"/><polyline class="cls-1" points="864.55 57.76 869.55 57.76 869.55 62.76"/><line class="cls-2" x1="869.55" y1="67.68" x2="869.55" y2="330.95"/><polyline class="cls-1" points="869.55 333.41 869.55 338.41 864.55 338.41"/><line class="cls-3" x1="859.34" y1="338.41" x2="736.84" y2="338.41"/><polyline class="cls-1" points="734.23 338.41 729.23 338.41 729.23 333.41"/><line class="cls-2" x1="729.23" y1="328.49" x2="729.23" y2="65.22"/><polyline class="cls-1" points="729.23 62.76 729.23 57.76 734.23 57.76"/><line class="cls-3" x1="739.44" y1="57.76" x2="861.95" y2="57.76"/><polyline class="cls-1" points="348.58 664.06 348.58 669.06 343.58 669.06"/><line class="cls-2" x1="338.66" y1="669.06" x2="75.39" y2="669.06"/><polyline class="cls-1" points="72.93 669.06 67.93 669.06 67.93 664.06"/><line class="cls-3" x1="67.93" y1="658.85" x2="67.93" y2="536.34"/><polyline class="cls-1" points="67.93 533.73 67.93 528.73 72.93 528.73"/><line class="cls-2" x1="77.85" y1="528.73" x2="341.12" y2="528.73"/><polyline class="cls-1" points="343.58 528.73 348.58 528.73 348.58 533.73"/><line class="cls-3" x1="348.58" y1="538.95" x2="348.58" y2="661.45"/><polyline class="cls-1" points="348.58 523.73 348.58 528.73 343.58 528.73"/><line class="cls-2" x1="338.66" y1="528.73" x2="75.39" y2="528.73"/><polyline class="cls-1" points="72.93 528.73 67.93 528.73 67.93 523.73"/><line class="cls-3" x1="67.93" y1="518.52" x2="67.93" y2="396.01"/><polyline class="cls-1" points="67.93 393.41 67.93 388.41 72.93 388.41"/><line class="cls-2" x1="77.85" y1="388.41" x2="341.12" y2="388.41"/><polyline class="cls-1" points="343.58 388.41 348.58 388.41 348.58 393.41"/><line class="cls-3" x1="348.58" y1="398.62" x2="348.58" y2="521.13"/><polyline class="cls-1" points="679.23 664.06 679.23 669.06 674.23 669.06"/><line class="cls-2" x1="669.31" y1="669.06" x2="406.04" y2="669.06"/><polyline class="cls-1" points="403.58 669.06 398.58 669.06 398.58 664.06"/><line class="cls-3" x1="398.58" y1="658.85" x2="398.58" y2="536.34"/><polyline class="cls-1" points="398.58 533.73 398.58 528.73 403.58 528.73"/><line class="cls-2" x1="408.5" y1="528.73" x2="671.77" y2="528.73"/><polyline class="cls-1" points="674.23 528.73 679.23 528.73 679.23 533.73"/><line class="cls-3" x1="679.23" y1="538.95" x2="679.23" y2="661.45"/><polyline class="cls-1" points="679.23 523.73 679.23 528.73 674.23 528.73"/><line class="cls-2" x1="669.31" y1="528.73" x2="406.04" y2="528.73"/><polyline class="cls-1" points="403.58 528.73 398.58 528.73 398.58 523.73"/><line class="cls-4" x1="398.58" y1="519.11" x2="398.58" y2="465.89"/><polyline class="cls-1" points="398.58 463.57 398.58 458.57 403.58 458.57"/><line class="cls-2" x1="408.5" y1="458.57" x2="671.77" y2="458.57"/><polyline class="cls-1" points="674.23 458.57 679.23 458.57 679.23 463.57"/><line class="cls-4" x1="679.23" y1="468.2" x2="679.23" y2="521.42"/><polyline class="cls-1" points="679.23 453.57 679.23 458.57 674.23 458.57"/><line class="cls-2" x1="669.31" y1="458.57" x2="406.04" y2="458.57"/><polyline class="cls-1" points="403.58 458.57 398.58 458.57 398.58 453.57"/><line class="cls-4" x1="398.58" y1="448.94" x2="398.58" y2="395.72"/><polyline class="cls-1" points="398.58 393.41 398.58 388.41 403.58 388.41"/><line class="cls-2" x1="408.5" y1="388.41" x2="671.77" y2="388.41"/><polyline class="cls-1" points="674.23 388.41 679.23 388.41 679.23 393.41"/><line class="cls-4" x1="679.23" y1="398.04" x2="679.23" y2="451.26"/><line class="cls-5" x1="729.23" y1="19.03" x2="729.23" y2="42.73"/><line class="cls-5" x1="869.55" y1="19.03" x2="869.55" y2="42.73"/><line class="cls-5" x1="729.23" y1="30.88" x2="869.55" y2="30.88"/><text class="cls-6" transform="translate(791.11 14.4)">1</text><line class="cls-5" x1="869.55" y1="19.03" x2="869.55" y2="42.73"/><line class="cls-5" x1="1009.88" y1="19.03" x2="1009.88" y2="42.73"/><line class="cls-5" x1="869.55" y1="30.88" x2="1009.88" y2="30.88"/><text class="cls-6" transform="translate(931.44 14.4)">2</text><line class="cls-1" x1="23.04" y1="669.06" x2="46.74" y2="669.06"/><line class="cls-7" x1="23.04" y1="528.73" x2="46.74" y2="528.73"/><line class="cls-5" x1="34.89" y1="669.06" x2="34.89" y2="528.73"/><text class="cls-6" transform="translate(0 604.3)">4</text><line class="cls-1" x1="23.04" y1="528.73" x2="46.74" y2="528.73"/><line class="cls-1" x1="23.04" y1="388.41" x2="46.74" y2="388.41"/><line class="cls-5" x1="34.89" y1="528.73" x2="34.89" y2="388.41"/><text class="cls-6" transform="translate(0 463.97)">3</text><line class="cls-5" x1="690.24" y1="999.71" x2="713.94" y2="999.71"/><line class="cls-5" x1="690.24" y1="859.39" x2="713.94" y2="859.39"/><line class="cls-5" x1="702.09" y1="999.71" x2="702.09" y2="859.39"/><text class="cls-6" transform="translate(667.2 934.95)">4</text><line class="cls-5" x1="690.24" y1="859.39" x2="713.94" y2="859.39"/><line class="cls-5" x1="690.24" y1="719.06" x2="713.94" y2="719.06"/><line class="cls-5" x1="702.09" y1="859.39" x2="702.09" y2="719.06"/><text class="cls-6" transform="translate(667.2 794.62)">3</text><line class="cls-5" x1="1369.35" y1="669.06" x2="1393.05" y2="669.06"/><line class="cls-5" x1="1369.35" y1="528.73" x2="1393.05" y2="528.73"/><line class="cls-5" x1="1381.2" y1="669.06" x2="1381.2" y2="528.73"/><text class="cls-6" transform="translate(1400.97 604.3)">6</text><line class="cls-5" x1="1369.35" y1="528.73" x2="1393.05" y2="528.73"/><line class="cls-5" x1="1369.35" y1="388.41" x2="1393.05" y2="388.41"/><line class="cls-5" x1="1381.2" y1="528.73" x2="1381.2" y2="388.41"/><text class="cls-6" transform="translate(1400.98 463.97)">5</text><line class="cls-5" x1="379.72" y1="528.73" x2="388.73" y2="528.73"/><line class="cls-5" x1="379.72" y1="458.57" x2="388.73" y2="458.57"/><line class="cls-1" x1="384.23" y1="528.73" x2="384.23" y2="458.57"/><text class="cls-6" transform="translate(357.7 499.06)">4’</text><line class="cls-5" x1="379.72" y1="458.57" x2="388.73" y2="458.57"/><line class="cls-5" x1="379.72" y1="388.41" x2="388.73" y2="388.41"/><line class="cls-5" x1="384.23" y1="458.57" x2="384.23" y2="388.41"/><text class="cls-6" transform="translate(357.7 428.89)">3’</text></g><g id="Layer_3" data-name="Layer 3"><polyline class="cls-8" points="67.93 398.41 338.58 398.41 338.58 528.73"/><polyline class="cls-8" points="729.23 67.76 859.55 67.76 859.55 338.41"/><line class="cls-8" x1="67.93" y1="538.73" x2="348.58" y2="538.73"/><line class="cls-8" x1="208.25" y1="669.06" x2="208.25" y2="538.73"/><polyline class="cls-8" points="398.58 398.41 669.23 398.41 669.23 458.57"/><polyline class="cls-8" points="679.23 658.9 408.58 658.9 408.58 528.73"/><polyline class="cls-8" points="1009.88 658.9 739.23 658.9 739.23 528.73"/><polyline class="cls-8" points="1340.53 658.9 1069.88 658.9 1069.88 528.73"/><line class="cls-8" x1="398.58" y1="468.73" x2="679.23" y2="468.73"/><line class="cls-8" x1="538.9" y1="528.73" x2="538.9" y2="468.73"/><line class="cls-8" x1="999.88" y1="57.76" x2="999.88" y2="338.41"/><line class="cls-8" x1="869.55" y1="198.08" x2="999.88" y2="198.08"/><polyline class="cls-8" points="729.23 397.41 859.55 397.41 859.55 458.57"/><line class="cls-8" x1="999.88" y1="388.41" x2="999.88" y2="528.73"/><line class="cls-8" x1="869.55" y1="458.57" x2="999.88" y2="458.57"/><line class="cls-8" x1="729.23" y1="468.57" x2="869.55" y2="468.57"/><line class="cls-8" x1="799.39" y1="528.73" x2="799.39" y2="468.73"/><polyline class="cls-8" points="729.23 727.06 859.55 727.06 859.55 859.38"/><line class="cls-8" x1="999.88" y1="719.06" x2="999.88" y2="999.71"/><line class="cls-8" x1="869.55" y1="859.39" x2="999.88" y2="859.39"/><line class="cls-8" x1="729.23" y1="869.39" x2="869.55" y2="869.39"/><line class="cls-8" x1="799.39" y1="999.71" x2="799.39" y2="869.71"/><polyline class="cls-8" points="1060.21 396.41 1190.54 396.41 1190.54 528.73"/><line class="cls-8" x1="1330.87" y1="388.41" x2="1330.87" y2="528.73"/><line class="cls-8" x1="1200.54" y1="458.57" x2="1330.87" y2="458.57"/><rect class="cls-1" x="1059.88" y="719.06" width="280.65" height="280.65"/><line class="cls-1" x1="1340.53" y1="719.06" x2="1059.88" y2="999.71"/><line class="cls-1" x1="1059.88" y1="719.06" x2="1343.27" y2="999.71"/></g></g></svg>