<svg xmlns="http://www.w3.org/2000/svg" viewBox="0 0 902.2 283.33"><defs><style>.cls-1{fill:none;stroke:#000;stroke-miterlimit:10;stroke-width:0.5px;opacity:0.5;}</style></defs><title>Asset 2</title><g id="Layer_2" data-name="Layer 2"><g id="Layer_5" data-name="Layer 5"><rect class="cls-1" x="0.25" y="0.49" width="68.15" height="68.15"/><rect class="cls-1" x="68.4" y="0.49" width="68.15" height="68.15"/><rect class="cls-1" x="0.25" y="68.63" width="68.15" height="68.15"/><rect class="cls-1" x="68.4" y="68.63" width="68.15" height="68.15"/><rect x="58.4" y="58.63" width="136.29" height="20" transform="translate(57.91 195.18) rotate(-90)"/><rect x="136.55" y="58.63" width="17.04" height="20" transform="translate(290.13 137.27) rotate(180)"/><rect x="299.73" y="35.92" width="17.04" height="20" transform="translate(616.5 91.83) rotate(180)"/><rect x="299.73" y="81.35" width="17.04" height="20" transform="translate(616.5 182.7) rotate(180)"/><rect class="cls-1" x="326.77" y="0.25" width="68.15" height="68.15"/><rect class="cls-1" x="394.92" y="0.25" width="68.15" height="68.15"/><rect class="cls-1" x="326.77" y="68.4" width="68.15" height="68.15"/><rect class="cls-1" x="394.92" y="68.4" width="68.15" height="68.15"/><rect x="384.92" y="58.4" width="136.29" height="20" transform="translate(384.67 521.46) rotate(-90)"/><rect x="326.77" y="58.4" width="136.3" height="20" transform="translate(789.83 136.8) rotate(180)"/><rect class="cls-1" x="687.51" y="146.78" width="68.15" height="68.15"/><rect class="cls-1" x="687.51" y="214.93" width="68.15" height="68.15"/><rect class="cls-1" x="619.36" y="146.78" width="68.15" height="68.15"/><rect class="cls-1" x="619.36" y="214.93" width="68.15" height="68.15"/><rect x="619.36" y="263.08" width="136.29" height="20"/><rect class="cls-1" x="765.65" y="146.78" width="68.15" height="68.15"/><rect class="cls-1" x="833.8" y="146.78" width="68.15" height="68.15"/><rect class="cls-1" x="765.65" y="214.93" width="68.15" height="68.15"/><rect class="cls-1" x="833.8" y="214.93" width="68.15" height="68.15"/><rect x="823.81" y="204.93" width="136.29" height="20" transform="translate(677.02 1106.88) rotate(-90)"/><rect class="cls-1" x="619.36" y="68.4" width="68.15" height="68.15"/><rect class="cls-1" x="619.36" y="0.25" width="68.15" height="68.15"/><rect class="cls-1" x="687.51" y="68.4" width="68.15" height="68.15"/><rect class="cls-1" x="687.51" y="0.25" width="68.15" height="68.15"/><rect x="619.36" y="116.55" width="136.29" height="20"/><rect x="619.36" y="58.4" width="136.3" height="20" transform="translate(619.11 755.91) rotate(-90)"/><rect class="cls-1" x="163.58" y="0.49" width="68.15" height="68.15"/><rect class="cls-1" x="231.73" y="0.49" width="68.15" height="68.15"/><rect class="cls-1" x="163.58" y="68.63" width="68.15" height="68.15"/><rect class="cls-1" x="231.73" y="68.63" width="68.15" height="68.15"/><rect x="221.59" y="58.63" width="136.29" height="20" transform="translate(221.1 358.37) rotate(-90)"/><rect class="cls-1" x="473.06" y="0.25" width="68.15" height="68.15"/><rect class="cls-1" x="541.21" y="0.25" width="68.15" height="68.15"/><rect class="cls-1" x="473.06" y="68.4" width="68.15" height="68.15"/><rect class="cls-1" x="541.21" y="68.4" width="68.15" height="68.15"/><rect x="531.21" y="58.4" width="136.29" height="20" transform="translate(667.76 -530.96) rotate(90)"/><rect x="473.06" y="81.11" width="136.3" height="20"/><rect x="473.06" y="35.68" width="136.3" height="20"/><rect class="cls-1" x="473.06" y="214.93" width="68.15" height="68.15"/><rect class="cls-1" x="473.06" y="146.78" width="68.15" height="68.15"/><rect class="cls-1" x="541.21" y="214.93" width="68.15" height="68.15"/><rect class="cls-1" x="541.21" y="146.78" width="68.15" height="68.15"/><rect x="473.07" y="146.78" width="136.29" height="20"/><rect x="495.78" y="204.93" width="136.3" height="20" transform="translate(349 778.86) rotate(-90)"/><rect x="450.35" y="204.93" width="136.3" height="20" transform="translate(303.57 733.43) rotate(-90)"/><rect class="cls-1" x="765.66" y="68.4" width="68.15" height="68.15"/><rect class="cls-1" x="765.66" y="0.25" width="68.15" height="68.15"/><rect class="cls-1" x="833.8" y="68.4" width="68.15" height="68.15"/><rect class="cls-1" x="833.8" y="0.25" width="68.15" height="68.15"/><rect x="765.66" y="116.55" width="136.29" height="20" transform="translate(1667.61 253.09) rotate(180)"/><rect x="742.94" y="58.4" width="136.3" height="20" transform="translate(879.48 -742.69) rotate(90)"/><rect x="788.37" y="58.4" width="136.3" height="20" transform="translate(924.92 -788.12) rotate(90)"/><rect class="cls-1" x="326.77" y="214.93" width="68.15" height="68.15"/><rect class="cls-1" x="326.77" y="146.78" width="68.15" height="68.15"/><rect class="cls-1" x="394.92" y="214.93" width="68.15" height="68.15"/><rect class="cls-1" x="394.92" y="146.78" width="68.15" height="68.15"/><rect x="326.77" y="146.78" width="136.29" height="20" transform="translate(789.83 313.56) rotate(180)"/><rect x="326.77" y="204.93" width="136.3" height="20" transform="translate(609.85 -179.99) rotate(90)"/></g></g></svg>