<svg xmlns="http://www.w3.org/2000/svg" viewBox="0 0 719.7 868.05"><defs><style>.cls-1{fill:#231f20;}.cls-2{fill:none;stroke:#000;stroke-miterlimit:10;stroke-width:0.5px;opacity:0.5;}</style></defs><title>Asset 1</title><g id="Layer_2" data-name="Layer 2"><g id="Layer_3" data-name="Layer 3"><polygon class="cls-1" points="136.72 136.55 116.72 136.55 116.72 20.25 0.42 20.25 0.42 0.25 136.72 0.25 136.72 136.55"/><rect class="cls-2" x="0.42" y="0.25" width="68.15" height="68.14"/><rect class="cls-2" x="68.57" y="0.25" width="68.15" height="68.14"/><rect class="cls-2" x="0.42" y="68.39" width="68.15" height="68.14"/><rect class="cls-2" x="68.57" y="68.39" width="68.15" height="68.14"/><polygon points="283.02 136.55 263.02 136.55 263.02 20.25 146.72 20.25 146.72 0.25 283.02 0.25 283.02 136.55"/><rect x="146.72" y="58.4" width="136.3" height="20"/><rect class="cls-2" x="146.72" y="0.25" width="68.15" height="68.15"/><rect class="cls-2" x="214.87" y="0.25" width="68.15" height="68.15"/><rect class="cls-2" x="146.72" y="68.4" width="68.15" height="68.15"/><rect class="cls-2" x="214.87" y="68.4" width="68.15" height="68.15"/><polygon points="361.16 136.55 341.16 136.55 341.16 20.25 293.02 20.25 293.02 0.25 361.16 0.25 361.16 136.55"/><polygon points="429.31 136.55 409.31 136.55 409.31 20.25 361.16 20.25 361.16 0.25 429.31 0.25 429.31 136.55"/><rect class="cls-2" x="293.02" y="0.25" width="68.15" height="68.15"/><rect class="cls-2" x="361.16" y="0.25" width="68.15" height="68.15"/><rect class="cls-2" x="293.02" y="68.4" width="68.15" height="68.15"/><rect class="cls-2" x="361.16" y="68.4" width="68.15" height="68.15"/><polygon points="0.25 146.37 20.25 146.37 20.25 262.67 136.55 262.67 136.55 282.67 0.25 282.67 0.25 146.37"/><rect class="cls-2" x="0.25" y="146.73" width="68.15" height="68.14"/><rect class="cls-2" x="68.4" y="146.73" width="68.15" height="68.14"/><rect class="cls-2" x="0.25" y="214.87" width="68.15" height="68.14"/><rect class="cls-2" x="68.4" y="214.87" width="68.15" height="68.14"/><polygon points="293.02 146.55 313.02 146.55 313.02 262.84 429.31 262.84 429.31 282.84 293.02 282.84 293.02 146.55"/><rect x="293.02" y="146.55" width="136.3" height="20"/><rect x="293.02" y="204.69" width="136.3" height="20"/><rect class="cls-2" x="293.02" y="146.55" width="68.15" height="68.15"/><rect class="cls-2" x="361.16" y="146.55" width="68.15" height="68.15"/><rect class="cls-2" x="293.02" y="214.69" width="68.15" height="68.15"/><rect class="cls-2" x="361.16" y="214.69" width="68.15" height="68.15"/><polygon points="146.72 146.55 166.72 146.55 166.72 262.85 283.02 262.85 283.02 282.85 146.72 282.85 146.72 146.55"/><rect x="146.72" y="146.55" width="136.3" height="20"/><rect class="cls-2" x="146.72" y="146.55" width="68.15" height="68.14"/><rect class="cls-2" x="214.87" y="146.55" width="68.15" height="68.14"/><rect class="cls-2" x="146.72" y="214.7" width="68.15" height="68.14"/><rect class="cls-2" x="214.87" y="214.7" width="68.15" height="68.14"/><polygon points="438.09 146.72 458.09 146.72 458.09 263.02 506.24 263.02 506.24 283.02 438.09 283.02 438.09 146.72"/><rect x="438.09" y="146.73" width="68.15" height="20"/><polygon points="506.24 146.72 526.24 146.72 526.24 263.02 574.38 263.02 574.38 283.02 506.24 283.02 506.24 146.72"/><rect x="506.24" y="146.73" width="68.15" height="20"/><rect class="cls-2" x="438.09" y="146.73" width="68.15" height="68.15"/><rect class="cls-2" x="506.24" y="146.73" width="68.15" height="68.15"/><rect class="cls-2" x="438.09" y="214.87" width="68.15" height="68.15"/><rect class="cls-2" x="506.24" y="214.87" width="68.15" height="68.15"/><polygon points="136.55 370.64 116.55 370.64 116.55 312.49 0.25 312.49 0.25 292.49 136.55 292.49 136.55 370.64"/><polygon points="0.25 350.64 20.25 350.64 20.25 408.79 136.55 408.79 136.55 428.79 0.25 428.79 0.25 350.64"/><rect x="0.25" y="350.64" width="136.3" height="20"/><rect class="cls-2" x="0.25" y="292.49" width="68.15" height="68.15"/><rect class="cls-2" x="68.4" y="292.49" width="68.15" height="68.15"/><rect class="cls-2" x="0.25" y="360.64" width="68.15" height="68.15"/><rect class="cls-2" x="68.4" y="360.64" width="68.15" height="68.15"/><polygon points="0.26 438.79 20.26 438.79 20.26 555.08 136.55 555.08 136.55 575.08 0.26 575.08 0.26 438.79"/><rect x="0.26" y="438.79" width="136.29" height="20"/><rect x="58.4" y="496.94" width="136.29" height="20" transform="translate(-380.39 633.49) rotate(-90)"/><rect class="cls-2" x="0.25" y="438.79" width="68.15" height="68.14"/><rect class="cls-2" x="68.4" y="438.79" width="68.15" height="68.14"/><rect class="cls-2" x="0.25" y="506.93" width="68.15" height="68.14"/><rect class="cls-2" x="68.4" y="506.93" width="68.15" height="68.14"/><rect x="293.02" y="438.79" width="136.29" height="20"/><rect x="293.02" y="555.08" width="136.29" height="20"/><rect x="258.94" y="496.94" width="136.29" height="20" transform="translate(-179.85 834.02) rotate(-90)"/><rect x="327.09" y="496.94" width="136.29" height="20" transform="translate(-111.7 902.17) rotate(-90)"/><rect class="cls-2" x="293.02" y="438.79" width="68.15" height="68.15"/><rect class="cls-2" x="361.16" y="438.79" width="68.15" height="68.15"/><rect class="cls-2" x="293.02" y="506.94" width="68.15" height="68.15"/><rect class="cls-2" x="361.16" y="506.94" width="68.15" height="68.15"/><polygon points="146.72 438.79 166.72 438.79 166.72 555.08 283.01 555.08 283.01 575.08 146.72 575.08 146.72 438.79"/><rect x="146.72" y="486.72" width="136.29" height="20"/><rect x="204.87" y="496.94" width="136.29" height="20" transform="translate(-233.92 779.95) rotate(-90)"/><rect class="cls-2" x="146.72" y="438.79" width="68.15" height="68.14"/><rect class="cls-2" x="214.87" y="438.79" width="68.15" height="68.14"/><rect class="cls-2" x="146.72" y="506.93" width="68.15" height="68.14"/><rect class="cls-2" x="214.87" y="506.93" width="68.15" height="68.14"/><polygon points="438.09 438.79 458.09 438.79 458.09 555.08 574.38 555.08 574.38 575.08 438.09 575.08 438.09 438.79"/><rect x="438.09" y="486.72" width="136.3" height="20"/><rect x="496.24" y="496.94" width="136.29" height="20" transform="translate(57.44 1071.32) rotate(-90)"/><rect x="438.09" y="496.94" width="136.29" height="20" transform="translate(-0.7 1013.17) rotate(-90)"/><rect class="cls-2" x="438.09" y="438.79" width="68.15" height="68.15"/><rect class="cls-2" x="506.23" y="438.79" width="68.15" height="68.15"/><rect class="cls-2" x="438.09" y="506.94" width="68.15" height="68.15"/><rect class="cls-2" x="506.23" y="506.94" width="68.15" height="68.15"/><path d="M58.41,585.08v58.14A58.14,58.14,0,0,1,.26,701.37h0v20h0a78.15,78.15,0,0,0,78.15-78.15V585.08Z"/><path d="M78.4,585.08v58.14a58.15,58.15,0,0,0,58.15,58.15h0v20h0A78.15,78.15,0,0,1,58.4,643.22V585.08Z"/><rect class="cls-2" x="0.26" y="585.08" width="68.15" height="68.14"/><rect class="cls-2" x="68.4" y="585.08" width="68.15" height="68.14"/><rect class="cls-2" x="0.26" y="653.23" width="68.15" height="68.14"/><rect class="cls-2" x="68.4" y="653.23" width="68.15" height="68.14"/><rect x="293.02" y="608.71" width="136.3" height="20"/><path d="M351.17,585.08v58.15A58.14,58.14,0,0,1,293,701.37h0v20h0a78.14,78.14,0,0,0,78.15-78.14V585.08Z"/><path d="M371.17,585.08v58.15a58.14,58.14,0,0,0,58.14,58.14h0v20h0a78.13,78.13,0,0,1-78.14-78.14V585.08Z"/><rect class="cls-2" x="293.01" y="585.08" width="68.15" height="68.15"/><rect class="cls-2" x="361.16" y="585.08" width="68.15" height="68.15"/><rect class="cls-2" x="293.01" y="653.23" width="68.15" height="68.15"/><rect class="cls-2" x="361.16" y="653.23" width="68.15" height="68.15"/><rect x="146.72" y="585.08" width="136.3" height="20"/><path d="M204.87,585.08v58.14a58.14,58.14,0,0,1-58.15,58.15h0v20h0a78.15,78.15,0,0,0,78.15-78.15V585.08Z"/><path d="M224.87,585.08v58.14A58.14,58.14,0,0,0,283,701.37h0v20h0a78.14,78.14,0,0,1-78.14-78.15V585.08Z"/><rect class="cls-2" x="146.72" y="585.08" width="68.15" height="68.14"/><rect class="cls-2" x="214.87" y="585.08" width="68.15" height="68.14"/><rect class="cls-2" x="146.72" y="653.23" width="68.15" height="68.14"/><rect class="cls-2" x="214.87" y="653.23" width="68.15" height="68.14"/><path d="M462.16,585.08v92.21a24.08,24.08,0,0,1-24.07,24.08h0v20h0a44.07,44.07,0,0,0,44.07-44.08V585.08Z"/><path d="M482.16,585.08v92.21a24.08,24.08,0,0,0,24.08,24.08h0v20h0a44.07,44.07,0,0,1-44.08-44.08V585.08Z"/><path d="M530.31,585.08v92.21a24.08,24.08,0,0,1-24.07,24.08h0v20h0a44.07,44.07,0,0,0,44.07-44.08V585.08Z"/><path d="M550.31,585.08v92.21a24.08,24.08,0,0,0,24.07,24.08h0v20h0a44.07,44.07,0,0,1-44.07-44.08V585.08Z"/><rect class="cls-2" x="438.09" y="585.08" width="68.15" height="68.15"/><rect class="cls-2" x="506.24" y="585.08" width="68.15" height="68.15"/><rect class="cls-2" x="438.09" y="653.23" width="68.15" height="68.15"/><rect class="cls-2" x="506.24" y="653.23" width="68.15" height="68.15"/><rect x="583.17" y="585.08" width="136.3" height="20"/><path d="M607.24,585.08V677.3a24.07,24.07,0,0,1-24.07,24.07h0v20h0a44.07,44.07,0,0,0,44.07-44.07V585.08Z"/><path d="M627.24,585.08V677.3a24.07,24.07,0,0,0,24.07,24.07h0v20h0a44.07,44.07,0,0,1-44.07-44.07V585.08Z"/><path d="M675.39,585.08V677.3a24.08,24.08,0,0,1-24.08,24.07h0v20h0a44.07,44.07,0,0,0,44.08-44.07V585.08Z"/><path d="M695.39,585.08V677.3a24.07,24.07,0,0,0,24.07,24.07h0v20h0a44.07,44.07,0,0,1-44.07-44.07V585.08Z"/><rect class="cls-2" x="583.16" y="585.08" width="68.15" height="68.15"/><rect class="cls-2" x="651.3" y="585.08" width="68.15" height="68.15"/><rect class="cls-2" x="583.16" y="653.23" width="68.15" height="68.15"/><rect class="cls-2" x="651.3" y="653.23" width="68.15" height="68.15"/><path d="M.26,799.58h0A68.15,68.15,0,0,0,68.4,867.73h0a68.15,68.15,0,0,0,68.15-68.15h0A68.15,68.15,0,0,0,68.4,731.43h0A68.15,68.15,0,0,0,.26,799.58ZM68.4,751.43h0a48.15,48.15,0,0,1,48.15,48.15h0A48.15,48.15,0,0,1,68.4,847.73h0a48.14,48.14,0,0,1-48.14-48.15h0A48.14,48.14,0,0,1,68.4,751.43Z"/><rect class="cls-2" x="0.26" y="731.43" width="68.15" height="68.15"/><rect class="cls-2" x="68.4" y="731.43" width="68.15" height="68.15"/><rect class="cls-2" x="0.26" y="799.58" width="68.15" height="68.15"/><rect class="cls-2" x="68.4" y="799.58" width="68.15" height="68.15"/><rect x="146.55" y="755.57" width="136.3" height="20"/><rect x="192.6" y="743.47" width="44.2" height="20" transform="translate(968.17 538.77) rotate(90)"/><path d="M146.55,828.79h0a39,39,0,0,0,39,39h58.28a39,39,0,0,0,39-39h0a39,39,0,0,0-39-39H185.56A39,39,0,0,0,146.55,828.79Zm39-19h58.28a19,19,0,0,1,19,19h0a19,19,0,0,1-19,19H185.56a19,19,0,0,1-19-19h0A19,19,0,0,1,185.56,809.78Z"/><rect class="cls-2" x="146.55" y="731.5" width="68.15" height="68.15"/><rect class="cls-2" x="214.7" y="731.5" width="68.15" height="68.15"/><rect class="cls-2" x="146.55" y="799.65" width="68.15" height="68.15"/><rect class="cls-2" x="214.7" y="799.65" width="68.15" height="68.15"/></g></g></svg>